<?xml version="1.0" encoding="utf-8"?>
<!-- Generator: Adobe Illustrator 24.0.2, SVG Export Plug-In . SVG Version: 6.00 Build 0)  -->
<svg version="1.1" id="Capa_1" xmlns="http://www.w3.org/2000/svg" xmlns:xlink="http://www.w3.org/1999/xlink" x="0px" y="0px"
	 viewBox="0 0 1019 500" style="enable-background:new 0 0 1019 500;" xml:space="preserve">
<style type="text/css">
	.st0{fill-rule:evenodd;clip-rule:evenodd;fill:#BF3B4A;}
	.st1{fill:none;}
	.st2{fill:#BF3B4A;}
	.st3{fill:#BF3B4A;stroke:#BF3B4A;stroke-miterlimit:10;}
	.st4{font-family:'PMingLiU-ExtB';}
	.st5{font-size:60px;}
	.st6{font-size:36px;}
</style>
<g>
	<g>
		<g>
			<path class="st0" d="M262.62,89.17c9.23,3.8,18.07,7.67,26.57,11.73c8.5,4.03,16.69,8.16,24.62,12.49
				c15.84,8.66,30.75,18.09,44.52,29.24c13.72,11.14,26.33,24.08,36.29,39.59c4.97,7.74,9.23,16.11,12.51,25.03
				c3.27,8.91,5.56,18.37,6.59,28.1c1.03,9.72,0.83,19.73-0.71,29.63c-1.53,9.9-4.39,19.68-8.46,28.94
				c-8.12,18.54-21.08,34.83-36.73,46.91c-15.63,12.14-33.91,20.15-52.48,23.29c-18.57,3.14-37.41,1.54-54.09-4.91
				c1.6-3.06,3.68-5.24,6.13-6.89c1.22-0.85,2.54-1.54,3.94-2.11c0.7-0.28,1.42-0.53,2.16-0.75c0.74-0.24,1.5-0.48,2.27-0.67
				c6.22-1.47,13.65-1.89,21.4-2.74c7.71-0.86,15.73-2.27,22.26-5.35c6.5-3.1,11.49-7.67,12.89-14.17
				c-0.69-1.57-2.38-1.66-4.53-1.05c-1.06,0.33-2.32,0.71-3.61,1.23c-1.31,0.48-2.64,1.13-4.05,1.6c-1.4,0.5-2.8,0.99-4.13,1.37
				c-1.34,0.36-2.64,0.54-3.77,0.57c-2.28,0.05-3.95-0.71-4.51-2.93c1.02-2.31,2.35-4.52,3.93-6.5c0.77-1.03,1.6-2.05,2.48-3
				c0.89-0.95,1.83-1.84,2.78-2.78c0.96-0.91,1.96-1.77,3.01-2.57c1.02-0.86,2.07-1.67,3.17-2.43c1.12-0.73,2.19-1.52,3.33-2.22
				c1.13-0.71,2.32-1.33,3.46-2c4.72-2.48,9.57-4.55,14.59-5.66c2.47-0.59,5.03-0.9,7.48-1.02c2.49-0.08,5.01,0.16,7.4,0.71
				c3.26-4.92,5.8-10.27,7.67-15.72c1.86-5.46,3.13-10.99,3.61-16.47c0.5-5.47,0.37-10.82-0.25-15.88
				c-0.58-5.07-1.84-9.89-3.28-14.39c-1.46-4.51-3.18-8.7-5.14-12.57c-1.93-3.88-3.93-7.48-5.94-10.98
				c-4.17-6.96-8.12-13.59-12-21.25c-0.13-1.27-0.15-2.41-0.07-3.42c0.03-0.99,0.16-1.86,0.37-2.64c0.42-1.56,1.16-2.74,2.04-3.75
				c1.74-2.05,4.06-3.4,5-6.4c-12.03-5.62-22.66-11.77-33.11-18.66c-1.32-0.82-2.57-1.77-3.89-2.6c-1.31-0.85-2.59-1.75-3.86-2.66
				c-1.3-0.85-2.58-1.75-3.85-2.67c-1.26-0.94-2.56-1.77-3.81-2.71c-5.05-3.65-10-7.45-14.74-11.18
				c-9.42-7.6-18.06-15.27-23.41-23.11C259.37,104.97,257.41,96.74,262.62,89.17z"/>
			<path class="st0" d="M308.07,382.11c-2.48,1.43-1.24,2.76,0.33,4.07c1.56,1.32,3.47,2.6,2.06,4.02
				c-11.09,1.19-23.57-1.98-34.62-7.33c-11.12-5.29-20.8-12.77-28.27-19.2c0.36,1.66-0.17,3.2-1.39,4.43
				c-0.61,0.61-1.4,1.14-2.33,1.56c-0.93,0.39-2,0.66-3.18,0.8c-2.36,0.27-5.17,0.02-8.06-1.19c-1.45-0.58-2.92-1.33-4.36-2.33
				c-1.43-1.04-2.84-2.28-4.17-3.76c-0.36-1.85,1.45-2.69,3.06-3.62c1.62-0.92,3.02-1.93,2.07-4.06c-2.14-2.15-4.3-3.36-6.46-4.28
				c-2.15-0.92-4.37-1.24-6.54-1.54c-2.17-0.31-4.37-0.39-6.46-0.68c-2.08-0.33-4.09-0.77-5.89-1.63c-3.18-4.72-4.38-8.07-4-10.4
				c12.57,1.91,23.91,6.03,36.26,10.92l2.31,0.96l2.34,0.91c1.57,0.61,3.15,1.28,4.74,1.94c3.2,1.19,6.46,2.63,9.8,3.83
				c6.68,2.63,13.67,5.03,20.99,7.22l5.55,1.55c1.87,0.5,3.75,0.9,5.66,1.36l2.88,0.65l2.89,0.54c1.94,0.34,3.9,0.71,5.87,1
				c7.88,1.13,15.97,1.61,24.11,1.29c8.1-0.42,16.23-1.68,24.05-3.96c7.79-2.35,15.27-5.73,22.02-10.16
				c1.53,2.88,0.73,6.86-2.04,11.28c-1.4,2.17-3.32,4.36-5.64,6.56c-2.35,2.13-5.14,4.18-8.26,6.04c-3.16,1.76-6.59,3.47-10.31,4.62
				c-1.85,0.6-3.74,1.17-5.67,1.57c-1.94,0.39-3.92,0.69-5.9,0.9c-1.98,0.24-3.99,0.27-6,0.21c-2.01-0.06-4-0.2-5.98-0.52
				c-1.98-0.34-3.94-0.8-5.86-1.38c-0.96-0.29-1.9-0.61-2.83-0.97C309.9,382.98,308.98,382.56,308.07,382.11z"/>
			<g>
				<g>
					<path class="st1" d="M329.12,351.16c-8.36,1.79-16.85,3.17-25.47,4.01c-8.62,0.84-17.34,1.19-26.12,1.03
						c-17.54-0.35-35.38-2.68-52.76-7.62c-17.36-4.93-34.28-12.49-49.45-22.92c-7.58-5.21-14.71-11.12-21.18-17.72
						c-6.44-6.62-12.16-13.95-16.97-21.85c-4.85-7.88-8.6-16.41-11.22-25.28c-1.37-4.42-2.26-8.97-3.04-13.54
						c-0.17-1.14-0.28-2.3-0.42-3.45c-0.11-1.15-0.32-2.3-0.37-3.46l-0.2-3.47l-0.1-1.74l0-1.74c-0.1-9.28,1.04-18.58,3.44-27.55
						c2.45-8.96,6.09-17.58,10.7-25.61c4.59-8.05,10.24-15.43,16.54-22.09c6.3-6.66,13.28-12.58,20.67-17.69
						c14.8-10.25,31.22-17.23,47.57-21.14c3.04-0.78,5.6-1.25,7.68-1.65c1.04-0.2,1.97-0.4,2.79-0.53c0.83-0.12,1.54-0.23,2.16-0.33
						c2.43-0.37,2.93-0.44,3.13-0.47c-0.4,0.1-5.1,0.66-9.73,1.66c-2.33,0.41-4.63,0.99-6.4,1.42c-1.77,0.43-3.02,0.73-3.23,0.78
						c-0.2,0.04,0.65-0.17,3.07-0.76c2.42-0.61,6.43-1.55,12.62-2.57"/>
					<path class="st2" d="M345.2,336.85c-18.15,6.63-36.74,10.33-55.27,11.45c-18.51,1.1-37.04-0.35-54.86-4.34
						c-17.79-4.02-34.98-10.6-50.35-20.08c-7.69-4.72-14.93-10.12-21.54-16.17c-6.62-6.05-12.49-12.83-17.56-20.14
						c-5.09-7.29-9.16-15.24-12.17-23.56c-0.83-2.06-1.38-4.2-2.05-6.31c-0.36-1.05-0.55-2.14-0.83-3.21
						c-0.25-1.08-0.55-2.15-0.77-3.23c-0.83-4.35-1.56-8.75-1.79-13.2c-1.3-17.81,2.78-36.01,11.43-52.14
						c4.34-8.05,9.7-15.63,15.95-22.48c6.27-6.82,13.36-12.95,21.02-18.26c15.31-10.67,32.97-17.88,51.09-21.52
						c5.7-5.09,11.98-9.7,18.73-14.05c-6.78,0.55-13.55,1.4-20.23,2.75c-3.12,2.48-6.05,5.23-8.89,7.85
						c-2.79,2.78-5.49,5.46-7.99,8.36c1.22-0.41,2.43-0.85,3.66-1.23l3.72-1.07c2.46-0.76,5-1.27,7.5-1.9
						c3.5-0.8,8.27-2.45,13.14-4.2c2.43-0.91,4.9-1.72,7.19-2.67c2.3-0.89,4.46-1.69,6.26-2.53c1.8-0.86,3.26-1.55,4.16-2.25
						c0.9-0.69,1.26-1.31,0.84-1.84c-0.41-0.52-1.59-0.95-3.72-1.2c-1.07-0.09-2.38-0.12-3.95-0.1c-1.57,0.03-3.41,0.06-5.52,0.32
						c-2.75,0.3-5.51,0.55-8.24,1.01l-4.1,0.63l-4.07,0.81c-0.93,0.19-1.94,0.44-3.02,0.74c-1.07,0.34-2.2,0.75-3.36,1.19
						c-1.17,0.44-2.37,0.93-3.58,1.45c-1.2,0.57-2.42,1.17-3.62,1.79c-2.42,1.2-4.73,2.66-6.84,4.06c-2.12,1.36-3.94,2.89-5.42,4.19
						c-0.74,0.66-1.39,1.28-1.92,1.86c-0.52,0.6-0.94,1.16-1.23,1.64c-0.58,0.97-0.66,1.68-0.1,2.02c1.11,0.68,4.68-0.21,12.21-2.73
						c2.99-1.05,6.06-1.86,9.11-2.75c1.53-0.42,3.08-0.75,4.62-1.14l2.31-0.56l2.34-0.46c3.51-0.73,8.31-2.27,13.23-3.89
						c2.46-0.8,4.92-1.72,7.25-2.48c2.32-0.81,4.49-1.7,6.31-2.4c3.64-1.49,5.9-2.96,5.1-4.01c-0.4-0.53-1.56-0.95-3.7-1.22
						c-1.07-0.13-2.38-0.24-3.95-0.27c-1.57,0.01-3.41,0.08-5.53,0.22c-18.93,1.41-37.88,6.31-55.32,14.7
						c-17.45,8.33-33.34,20.27-45.92,35.06c-12.66,14.71-21.64,32.56-25.57,51.35c-1.89,9.41-2.52,19.02-1.9,28.51
						c0.07,2.38,0.45,4.73,0.69,7.09c0.1,1.18,0.35,2.35,0.54,3.51l0.61,3.5l0.8,3.46c0.29,1.15,0.49,2.31,0.85,3.44l1,3.4
						c0.17,0.56,0.32,1.14,0.51,1.7l0.59,1.67c3.08,8.92,7.25,17.43,12.34,25.32c5.13,7.87,11.13,15.14,17.76,21.76
						c13.27,13.26,29.1,23.78,46.09,31.67c17.01,7.91,35.24,13.21,53.95,16.15c18.72,2.97,37.98,3.52,57.45,1.58
						c0.83-0.09,1.79-0.22,2.83-0.49c1.04-0.28,2.18-0.63,3.4-1.05c1.21-0.43,2.51-0.88,3.83-1.47c1.32-0.59,2.68-1.24,4.06-1.93
						c0.69-0.35,1.39-0.71,2.09-1.07c0.69-0.4,1.38-0.8,2.07-1.2c1.38-0.82,2.76-1.66,4.11-2.52c1.33-0.91,2.63-1.85,3.88-2.77
						c1.26-0.92,2.46-1.85,3.57-2.82c4.5-3.76,7.7-7.51,8.79-9.74c0.52-1.15,0.53-1.93-0.12-2.21
						C348.58,335.89,347.31,336.12,345.2,336.85z"/>
				</g>
			</g>
		</g>
	</g>
</g>
<g>
	<g>
		<path class="st2" d="M224.58,277.35c-11.54-7-19.99-15.92-25.34-26.77c-5.35-10.85-8.02-20.45-8.02-28.8
			c0-13.51,6.02-25.03,18.07-34.55c12.05-9.52,27.86-14.28,47.41-14.28c18.84,0,35.21,5.67,49.11,17h1.31l-5.36-12.55
			c-0.07-0.05-0.2-0.11-0.39-0.16l-6.43-2.01c-3.9-1.29-8.79-2.53-14.66-3.74c-5.88-1.2-12.84-1.81-20.9-1.81
			c-16.11,0-30.43,2.87-42.96,8.6c-12.53,5.73-22.13,13.57-28.79,23.52c-6.66,9.95-9.99,20.31-9.99,31.08
			c0,15.95,6.47,29.64,19.43,41.08c9.53,8.42,23.7,13.74,42.5,15.96l-2.84-6.8C232.43,281.56,228.37,279.64,224.58,277.35z"/>
		<path class="st2" d="M282.6,284.16c-3.81,1.04-7.65,1.89-11.51,2.55l-1.52,3.62c5.73-0.82,14.89-2.35,27.48-4.59l10.03-12.65
			l-1.38-0.32C300.65,277.53,292.94,281.33,282.6,284.16z"/>
		<path class="st2" d="M289.34,224.27c1.06-1.76,2.09-2.77,3.08-3.03c1-0.25,1.95-0.38,2.85-0.38v-0.88h-12.98v0.88
			c2.02-0.12,3.03,0.48,3.03,1.81c0,0.54-0.18,1.26-0.53,2.16l-21.46,53.76l-0.02,0.06l-1.19,2.98l-0.02,0.05l-3.92,9.82
			l-4.03-10.01l-1.62-4.01l-21.21-52.67c-0.23-0.67-0.35-1.29-0.35-1.88c0-1.49,0.88-2.18,2.64-2.06v-0.88h-19.97v0.88
			c1.49,0,2.94,0.46,4.35,1.38c1.41,0.92,3.21,4.07,5.4,9.44l17.21,42.62l2.53,6.27l11.06,27.41h1.12l10.54-26.32l0.05-0.14
			l1.15-2.86l0.06-0.16l20.58-51.41C287.73,226.98,288.28,226.04,289.34,224.27z"/>
	</g>
</g>
<text transform="matrix(1 0 0 1 476.396 247.6934)" class="st3 st4 st5">VITA  &amp;  COOPER</text>
<text transform="matrix(0.9545 0 0 1 647 298.5146)" class="st3 st4 st6">Moda con sentimiento</text>
</svg>
