<?xml version="1.0" encoding="utf-8"?>
<!-- Generator: Adobe Illustrator 24.0.2, SVG Export Plug-In . SVG Version: 6.00 Build 0)  -->
<svg version="1.1" id="Capa_1" xmlns="http://www.w3.org/2000/svg" xmlns:xlink="http://www.w3.org/1999/xlink" x="0px" y="0px"
	 viewBox="0 0 1019 188" style="enable-background:new 0 0 1019 188;" xml:space="preserve">
<style type="text/css">
	.st0{fill-rule:evenodd;clip-rule:evenodd;fill:#4D4D4D;}
	.st1{fill:none;}
	.st2{fill:#4D4D4D;}
	.st3{fill:#4D4D4D;stroke:#4D4D4D;stroke-miterlimit:10;}
	.st4{font-family:'PMingLiU-ExtB';}
	.st5{font-size:35.6221px;}
	.st6{font-size:21.3733px;}
</style>
<g>
	<g>
		<g>
			<path class="st0" d="M348.14,3.99c10.96,4.5,20.97,9.26,30.39,14.38c9.41,5.14,18.26,10.74,26.43,17.36
				c8.15,6.61,15.63,14.3,21.55,23.5c5.9,9.16,10.12,19.96,11.34,31.54c1.26,11.54-0.58,23.79-5.45,34.77
				c-4.82,11.01-12.52,20.68-21.8,27.85c-9.28,7.21-20.13,11.96-31.16,13.82c-11.03,1.87-22.21,0.91-32.12-2.92
				c0.95-1.82,2.19-3.11,3.64-4.09c1.45-1.03,3.13-1.59,4.97-2.1c3.69-0.87,8.11-1.12,12.7-1.63c4.58-0.51,9.34-1.35,13.22-3.18
				c3.86-1.84,6.82-4.56,7.65-8.41c-0.41-0.93-1.41-0.98-2.69-0.62c-0.63,0.2-1.38,0.42-2.14,0.73c-0.78,0.29-1.57,0.67-2.41,0.95
				c-0.83,0.3-1.66,0.59-2.45,0.81c-0.79,0.22-1.57,0.32-2.24,0.34c-1.35,0.03-2.35-0.42-2.68-1.74c2.51-5.43,7.65-9.74,13.16-12.76
				c2.8-1.47,5.68-2.7,8.66-3.36c1.47-0.35,2.99-0.54,4.44-0.61c1.48-0.05,2.98,0.09,4.39,0.42c1.93-2.92,3.44-6.1,4.55-9.33
				c1.1-3.24,1.86-6.53,2.14-9.78c0.6-6.52-0.31-12.64-2.1-17.97c-1.7-5.39-4.24-9.84-6.58-13.98c-2.48-4.13-4.82-8.07-7.12-12.62
				c-0.08-0.75-0.09-1.43-0.04-2.03c0.02-0.59,0.1-1.1,0.22-1.57c0.25-0.93,0.69-1.62,1.21-2.23c1.03-1.22,2.41-2.02,2.97-3.8
				c-7.14-3.34-13.45-6.99-19.66-11.08c-3.09-2.05-6.14-4.17-9.15-6.32c-3-2.16-5.94-4.42-8.75-6.64
				c-5.6-4.51-10.72-9.07-13.9-13.72C346.21,13.37,345.05,8.48,348.14,3.99z"/>
			<path class="st0" d="M375.12,177.91c-1.47,0.85-0.74,1.64,0.2,2.42c0.93,0.78,2.06,1.55,1.22,2.39
				c-6.58,0.71-13.99-1.18-20.56-4.35c-6.6-3.14-12.35-7.58-16.78-11.4c0.21,0.98-0.1,1.9-0.83,2.63c-0.73,0.74-1.87,1.26-3.27,1.4
				c-1.4,0.16-3.07,0.01-4.78-0.7c-0.86-0.35-1.73-0.79-2.59-1.38c-0.85-0.62-1.69-1.36-2.48-2.23c-0.39-2.19,4.21-2.03,3.04-4.56
				c-2.54-2.49-5.11-3.14-7.72-3.46c-1.29-0.19-2.59-0.23-3.83-0.41c-1.23-0.19-2.43-0.46-3.5-0.97c-1.89-2.8-2.6-4.79-2.38-6.17
				c7.46,1.13,14.2,3.58,21.53,6.48c1.82,0.78,3.69,1.44,5.58,2.26c1.9,0.7,3.83,1.56,5.82,2.27c3.96,1.56,8.11,2.98,12.46,4.29
				c4.35,1.3,8.88,2.3,13.57,3.03c4.68,0.67,9.48,0.96,14.31,0.76c4.81-0.25,9.63-1,14.28-2.35c4.62-1.4,9.06-3.4,13.08-6.03
				c0.91,1.71,0.43,4.07-1.21,6.7c-0.83,1.29-1.97,2.59-3.35,3.89c-1.4,1.26-3.05,2.48-4.9,3.58c-3.73,2.14-8.26,3.78-12.99,4.21
				c-2.35,0.25-4.77,0.15-7.11-0.18C379.56,179.61,377.28,179,375.12,177.91z"/>
			<g>
				<g>
					<path class="st1" d="M387.62,159.53c-9.91,2.15-20.2,3.19-30.63,2.99c-10.42-0.21-21-1.59-31.33-4.53
						c-10.31-2.93-20.35-7.42-29.36-13.61c-4.5-3.09-8.74-6.6-12.58-10.52c-3.82-3.93-7.22-8.28-10.08-12.97
						c-2.88-4.68-5.11-9.74-6.66-15.01c-1.56-5.26-2.42-10.75-2.45-16.27c-0.06-5.51,0.62-11.03,2.04-16.36
						c1.45-5.32,3.61-10.44,6.35-15.2c5.48-9.56,13.33-17.55,22.09-23.62c8.79-6.08,18.54-10.23,28.24-12.55
						c1.8-0.46,3.32-0.74,4.56-0.98c1.24-0.26,2.2-0.41,2.94-0.51c1.44-0.22,1.74-0.26,1.86-0.28c-0.24,0.06-3.03,0.39-5.78,0.98
						c-1.38,0.25-2.75,0.58-3.8,0.84c-1.05,0.25-1.8,0.43-1.91,0.46c-0.12,0.02,0.38-0.1,1.82-0.45c1.43-0.36,3.82-0.92,7.49-1.53"
						/>
					<path class="st2" d="M397.17,151.04c-10.77,3.94-21.81,6.13-32.81,6.8c-10.99,0.65-21.99-0.21-32.57-2.58
						c-10.56-2.39-20.77-6.29-29.89-11.92c-4.56-2.8-8.86-6.01-12.79-9.6c-3.93-3.59-7.42-7.62-10.42-11.96
						c-3.02-4.33-5.44-9.05-7.22-13.99c-1.81-4.94-2.89-10.13-3.23-15.41c-0.77-10.57,1.65-21.38,6.78-30.96
						c2.57-4.78,5.76-9.28,9.47-13.35c3.73-4.05,7.93-7.69,12.48-10.84c9.09-6.33,19.58-10.62,30.33-12.78
						c3.38-3.02,7.11-5.76,11.12-8.34c-4.03,0.33-8.05,0.83-12.01,1.63c-1.85,1.47-3.59,3.11-5.28,4.66
						c-1.66,1.65-3.26,3.24-4.75,4.96c0.72-0.24,1.44-0.51,2.18-0.73l2.21-0.64c1.46-0.45,2.97-0.76,4.45-1.13
						c2.08-0.47,4.91-1.45,7.8-2.5c1.44-0.54,2.91-1.02,4.27-1.58c1.37-0.53,2.65-1,3.71-1.5c2.14-0.97,3.46-1.78,2.97-2.42
						c-0.24-0.31-0.94-0.56-2.21-0.71c-1.27-0.08-3.11-0.14-5.62,0.13c-1.63,0.18-3.27,0.33-4.89,0.6l-2.44,0.37l-2.42,0.48
						c-0.55,0.11-1.15,0.26-1.79,0.44c-0.64,0.2-1.3,0.44-2,0.7c-0.69,0.26-1.41,0.55-2.13,0.86c-0.71,0.34-1.43,0.7-2.15,1.07
						c-2.86,1.46-5.54,3.31-7.28,4.9c-0.88,0.77-1.53,1.5-1.87,2.08c-0.34,0.58-0.39,1-0.06,1.2c0.66,0.41,2.78-0.12,7.25-1.62
						c3.57-1.2,7.22-2.16,10.91-2.91c2.08-0.43,4.94-1.35,7.85-2.31c1.47-0.5,2.94-1.01,4.31-1.48c1.38-0.48,2.66-1.01,3.75-1.43
						c2.16-0.89,3.5-1.76,3.03-2.38c-0.24-0.31-0.93-0.56-2.19-0.72c-0.63-0.08-1.41-0.14-2.34-0.16c-0.93,0.01-2.02,0.05-3.28,0.13
						c-11.24,0.84-22.49,3.75-32.84,8.73c-10.36,4.95-19.79,12.03-27.27,20.82c-7.52,8.73-12.85,19.33-15.18,30.48
						c-2.23,11.17-1.52,22.84,2.19,33.42c1.83,5.3,4.3,10.35,7.33,15.03c3.05,4.67,6.61,8.99,10.54,12.92
						c7.88,7.87,17.28,14.12,27.36,18.8c10.1,4.7,20.92,7.84,32.03,9.59c11.11,1.76,22.55,2.09,34.11,0.94
						c0.99-0.07,2.26-0.41,3.7-0.92c1.45-0.47,3.04-1.19,4.68-2.02c1.66-0.79,3.3-1.85,4.91-2.85c1.57-1.11,3.11-2.17,4.42-3.32
						c2.67-2.23,4.57-4.46,5.22-5.78C400.23,150.55,399.66,150.15,397.17,151.04z"/>
				</g>
			</g>
		</g>
	</g>
</g>
<g>
	<g>
		<path class="st2" d="M325.55,115.71c-6.85-4.15-11.87-9.45-15.05-15.89c-3.18-6.44-4.76-12.14-4.76-17.1
			c0-8.02,3.58-14.86,10.73-20.51c7.16-5.65,16.54-8.48,28.15-8.48c11.18,0,20.9,3.36,29.16,10.09h0.78l-3.18-7.45
			c-0.04-0.03-0.12-0.06-0.23-0.1l-3.82-1.19c-2.31-0.76-5.22-1.5-8.7-2.22c-3.49-0.72-7.63-1.07-12.41-1.07
			c-9.56,0-18.07,1.7-25.51,5.11c-7.44,3.4-13.14,8.06-17.09,13.96c-3.95,5.91-5.93,12.06-5.93,18.45c0,9.47,3.84,17.6,11.53,24.39
			c5.66,5,14.07,8.16,25.23,9.48l-1.68-4.04C330.21,118.21,327.8,117.07,325.55,115.71z"/>
		<path class="st2" d="M360,119.75c-2.26,0.62-4.54,1.12-6.84,1.51l-0.9,2.15c3.4-0.49,8.84-1.4,16.31-2.72l5.96-7.51l-0.82-0.19
			C370.71,115.82,366.14,118.07,360,119.75z"/>
		<path class="st2" d="M364,84.2c0.63-1.05,1.24-1.65,1.83-1.8c0.59-0.15,1.16-0.23,1.69-0.23v-0.52h-7.71v0.52
			c1.2-0.07,1.8,0.29,1.8,1.07c0,0.32-0.1,0.75-0.31,1.28l-12.74,31.92l-0.01,0.03l-0.71,1.77l-0.01,0.03l-2.33,5.83l-2.39-5.94
			l-0.96-2.38l-12.59-31.27c-0.14-0.4-0.21-0.77-0.21-1.12c0-0.88,0.52-1.29,1.57-1.22v-0.52h-11.86v0.52
			c0.88,0,1.74,0.27,2.58,0.82c0.84,0.55,1.91,2.42,3.21,5.61l10.22,25.3l1.5,3.72l6.57,16.27h0.66l6.26-15.63l0.03-0.08l0.68-1.7
			l0.04-0.09l12.22-30.52C363.05,85.81,363.37,85.25,364,84.2z"/>
	</g>
</g>
<text transform="matrix(1 0 0 1 475.0586 98.1045)" class="st3 st4 st5">VITA  &amp;  COOPER</text>
<text transform="matrix(0.9545 0 0 1 576.3447 128.2773)" class="st3 st4 st6">Moda con sentimiento</text>
</svg>
